# xmcd
#
# Track frame offsets: 
#        150
#        8052
#        25017
#        32253
#        42261
#        50064
#        58056
#        66741
#        76659
#        84552
#        93120
#        101247
#        110103
#        120417
#        134250
#        147282
#        156408
#        167208
#        177243
#        184713
#        194073
#        203847
#        213342
#        222468
#        236832
#
# Disc length: 3259 seconds
#
# Revision: 0
# Processed by: cddbd v1.5.2PL0 Copyright (c) Steve Scherf et al.
# Submitted via: ExactAudioCopy v0.99pb3
#
DISCID=6d0cb919
DTITLE=Various Artist - Golden Fiddle 25 Selections
DYEAR=1900
DGENRE=Country
TTITLE0=01 - Graham Townsend - Angus Campbell
TTITLE1=02 - Eleanor Townsend - Rosebud of Avondale
TTITLE2=03 - Bill Sawyer - Salt Water Jig
TTITLE3=04 - Bunty Petrie - Maple Sugar
TTITLE4=05 - Carl Elliott - St. Patrick's Jig
TTITLE5=06 - Carl Elliott - Golden Wedding
TTITLE6=07 - Bill Sawyer - Smash the Window
TTITLE7=08 - Eddie Poirier - Seige of Innis
TTITLE8=09 - John Wilmot - Belfast Reel
TTITLE9=10 - Chuck Joyce - Fuddle Duddle Hornpipe
TTITLE10=11 - Rick Cormier - Waylon's Breakdown
TTITLE11=12 - Eddie Poirier - High Level Hornpipe
TTITLE12=13 - Eddie Poirier - Scottish Medley
TTITLE13=14 - Graham Townsend - McDowell's Breakdown
TTITLE14=15 - Carl Elliott - The Waltz You Saved For Me
TTITLE15=16 - Bill Sawyer - Irish Washerwoman
TTITLE16=17 - Bill Sawyer - Cotton-Eyed Joe
TTITLE17=18 - Smiley Bates - The French Reel
TTITLE18=19 - Carl Elliott - Concert Reel
TTITLE19=20 - Bill Sawyer - Joys of Quebec
TTITLE20=21 - Gaetan Poirer - Liverpool Hornpipe
TTITLE21=22 - Chuck Joyce - Heather on the Hill
TTITLE22=23 - Rick Cormier - Way Down Yonder
TTITLE23=24 - Bunty Petrie - Faded Love
TTITLE24=25 - Bob Ranger - Pat The Budgie
EXTD=
EXTT0=
EXTT1=
EXTT2=
EXTT3=
EXTT4=
EXTT5=
EXTT6=
EXTT7=
EXTT8=
EXTT9=
EXTT10=
EXTT11=
EXTT12=
EXTT13=
EXTT14=
EXTT15=
EXTT16=
EXTT17=
EXTT18=
EXTT19=
EXTT20=
EXTT21=
EXTT22=
EXTT23=
EXTT24=
PLAYORDER=
